# xmcd CD database file
#
# Track frame offsets:
#	150
#	26289
#	43800
#	56271
#	74351
#	97356
#	121815
#	149060
#	168377
#	182473
#	205203
#	222320
#	242243
#	279445
#
# Disc length: 4173 seconds
#
# Revision: 0
# Processed by: cddbd v1.5.1PL0 Copyright (c) Steve Scherf et al.
# Submitted via: CDex 1.51
#
DISCID=d4104b0e
DTITLE=KINK Lights Out - Lights Out 9
DYEAR=2005
DGENRE=New Age
TTITLE0=Erik W0llo - Blue Sky
TTITLE1=Phil Cunningham and Manus Lanny - When the Snow Melts
TTITLE2=Acoustic Alchemy - Coffee with Manni
TTITLE3=George Winston - High Plains Lullaby
TTITLE4=B-Tribe - Es Verda
TTITLE5=Schonherz and Scot - Bayangume
TTITLE6=Tom Grant - Celia
TTITLE7=Will Ackerman - The Bricklayers Beautiful Daughter
TTITLE8=Daniel Lanois - Tansmitter
TTITLE9=Sandy Owen - Soaring
TTITLE10=Michael McCabe - Lullaby for Jacqueline
TTITLE11=Moby - 18
TTITLE12=Michael Gulezian - Michael Hedges Goes to Heaven
TTITLE13=Mark Isham - Pittsburgh 1901
EXTD=YEAR: 2005
EXTT0=
EXTT1=
EXTT2=
EXTT3=
EXTT4=
EXTT5=
EXTT6=
EXTT7=
EXTT8=
EXTT9=
EXTT10=
EXTT11=
EXTT12=
EXTT13=
PLAYORDER=
